<svg xmlns="http://www.w3.org/2000/svg" xmlns:xlink="http://www.w3.org/1999/xlink" viewBox="0 0 351.95 206.54"><defs><clipPath id="8af2cfa7-0823-498d-b628-642c89cc7e73"><path d="M33.48,45.91c-17.58,0-31.82,15.67-31.82,35s14.25,35,31.82,35H67.27c17.58,0,31.82-15.67,31.82-35s-14.25-35-31.82-35Z" style="fill:none"/></clipPath></defs><title>BEESOFT_LOGO</title><g id="a62e6246-de8e-4a34-84a6-ec23d8effd69" data-name="Layer 2"><g id="7576c75d-480b-4087-9d5c-d77a71fab9be" data-name="Layer 1"><path d="M180.83,95.14c0-9.81-5.79-13.44-8.64-15.21,2.16-1.47,7.65-5.89,7.65-13.84,0-12.07-7.75-20.22-22.28-20.22H128.63v69.87H159C171.51,115.75,180.83,108.49,180.83,95.14ZM162.68,67c0,2.75-1.47,5.69-6.18,5.69H145.8V61.29h10.7C161.21,61.29,162.68,64.23,162.68,67Zm1,27.18c0,2.94-1.57,6.18-6.28,6.18H145.8V88.08h11.58C162.09,88.08,163.66,91.22,163.66,94.16Z" style="fill-rule:evenodd"/><polygon points="236.72 115.75 236.72 100.44 206.4 100.44 206.4 88.17 232.31 88.17 232.31 72.87 206.4 72.87 206.4 61.19 236.72 61.19 236.72 45.88 189.23 45.88 189.23 115.75 236.72 115.75" style="fill-rule:evenodd"/><polygon points="294.42 115.75 294.42 100.44 264.09 100.44 264.09 88.17 290 88.17 290 72.87 264.09 72.87 264.09 61.19 294.42 61.19 294.42 45.88 246.92 45.88 246.92 115.75 294.42 115.75" style="fill-rule:evenodd"/><path d="M108.77,77.25h-8.19c-1.38-15.15-11.14-27.48-24-31.55a23.57,23.57,0,0,0,14.8-21.82A23.93,23.93,0,0,0,67.22,0H65.57V2.43A24,24,0,0,0,55,0H53.37V44.26H33.48C15,44.26,0,60.71,0,80.92s15,36.66,33.48,36.66H67.27c17.26,0,31.62-14.37,33.31-33h9c2.64-.21,5.73-.93,5.73-3.65S111.41,77.45,108.77,77.25Z" style="fill:#fff"/><path d="M108.78,78.9h0c3.21.25,4.86,1.14,4.86,2.06s-1.66,1.74-4.86,2H90.13v-4Z" style="fill:#010101"/><path d="M54.89,1.86a22,22,0,0,1,0,44.05Z" style="fill:#d2d3d4;fill-rule:evenodd"/><path d="M67.22,1.83a22,22,0,0,1,0,44.08Z" style="fill:#d2d3d4;fill-rule:evenodd"/><path d="M67.27,45.91c17.58,0,31.82,15.67,31.82,35s-14.25,35-31.82,35H33.48c-17.58,0-31.82-15.67-31.82-35s14.25-35,31.82-35Z" style="fill:#010101"/><g style="clip-path:url(#8af2cfa7-0823-498d-b628-642c89cc7e73)"><rect x="54.8" y="35.27" width="4.93" height="85.38" style="fill:#ffcb0b"/><rect x="64.66" y="35.27" width="4.93" height="85.38" style="fill:#ffcb0b"/><rect x="74.52" y="35.27" width="4.93" height="85.38" style="fill:#ffcb0b"/><rect x="84.39" y="35.27" width="4.93" height="85.38" style="fill:#ffcb0b"/></g><path d="M7.34,80.92A20.56,20.56,0,1,1,27.9,101.48,20.56,20.56,0,0,1,7.34,80.92" style="fill:#fff"/><path d="M67.22,5.64v36.5a22,22,0,0,0,0-36.5Z" style="fill:#bdbec0;fill-rule:evenodd"/><path d="M11.11,80.95a4,4,0,1,1,4,4,4,4,0,0,1-4-4" style="fill:#010101"/><path d="M178.52,184.53a19.66,19.66,0,0,1-3.63,11.87,22.47,22.47,0,0,1-9.8,7.57,35.11,35.11,0,0,1-13.62,2.57,49.7,49.7,0,0,1-15.14-2.07,27.73,27.73,0,0,1-11.44-7.16l11.05-11.05a15.18,15.18,0,0,0,6.82,3.77,32.61,32.61,0,0,0,8.79,1.18q10,0,10-6.29a5.71,5.71,0,0,0-1.39-4.13,7.73,7.73,0,0,0-4.61-1.87l-8.46-1.2q-9.32-1.3-14.08-6.2t-4.81-14.08a21.28,21.28,0,0,1,3.1-11.41,21,21,0,0,1,8.89-7.86,30.54,30.54,0,0,1,13.57-2.83,41.59,41.59,0,0,1,13.53,2,25.92,25.92,0,0,1,10.11,6.37L166.65,154.5a12.06,12.06,0,0,0-5.81-3.41,33.78,33.78,0,0,0-7.5-.72q-4.13,0-6.29,2a6,6,0,0,0-2.16,4.52,4.47,4.47,0,0,0,1.39,3.27,8.14,8.14,0,0,0,4.8,2.07l8.46,1.15q9.23,1.35,13.79,5.81a15.36,15.36,0,0,1,4,6.42A29.13,29.13,0,0,1,178.52,184.53Z" style="fill:#fff"/><path d="M239.52,170.93v2.35q0,5.86-.41,10.09a30.42,30.42,0,0,1-1.94,8.17,20.57,20.57,0,0,1-4.71,7.11,27.08,27.08,0,0,1-8.57,5.89,28,28,0,0,1-11,2,30.76,30.76,0,0,1-7.7-.89,24.1,24.1,0,0,1-6.34-2.62,27.22,27.22,0,0,1-5.5-4.37,20.75,20.75,0,0,1-5.86-10.47,73.5,73.5,0,0,1-1.25-14.89v-4.71a73.88,73.88,0,0,1,1.25-14.92,20.76,20.76,0,0,1,5.86-10.5,26.6,26.6,0,0,1,8.62-5.91,32,32,0,0,1,21.91,0,26.69,26.69,0,0,1,8.59,5.89,20.52,20.52,0,0,1,4.71,7.14,30.75,30.75,0,0,1,1.94,8.19q.41,4.23.41,10.09Zm-17.2,0a80.65,80.65,0,0,0-.6-12.2,11.52,11.52,0,0,0-1.95-5,7,7,0,0,0-2.81-2.21,9.59,9.59,0,0,0-4.11-.86,9.21,9.21,0,0,0-4,.84,7.93,7.93,0,0,0-2.88,2.23,9.22,9.22,0,0,0-1.42,2.71,22.31,22.31,0,0,0-.84,4.95q-.29,3.34-.29,9.54t.29,9.49a21.85,21.85,0,0,0,.84,4.92A9.26,9.26,0,0,0,206,188a9.08,9.08,0,0,0,13.79,0,12.62,12.62,0,0,0,1.95-5A78,78,0,0,0,222.32,170.93Z" style="fill:#fff"/><path d="M294.74,151.23H264.33v12.3h26v15.33h-26V206h-17.2V135.91h47.62Z" style="fill:#fff"/><path d="M352,151.23H334.7V206H317.5V151.23H300.25V135.91H352Z" style="fill:#fff"/></g></g></svg>