<svg xmlns="http://www.w3.org/2000/svg" viewBox="0 0 186.83 193.6"><title>calibrate_grey</title><g id="2c623d02-20a3-420d-a16c-3af33380180e" data-name="Layer 2"><g id="4874faf7-77c6-426c-a653-7aad9760c072" data-name="ICONS"><rect y="103.04" width="186.83" height="9.83" rx="4.92" ry="4.92" style="fill:#898989"/><rect y="81.13" width="186.83" height="9.83" rx="4.92" ry="4.92" style="fill:#898989"/><path d="M114,42.3H100.36V56H86.52V42.3H72.81V28.46H86.52V14.75h13.84V28.46H114Z" style="fill:#898989"/><path d="M108.18,154.26H78.65V140.33h29.53Z" style="fill:#898989"/><path d="M167.89,33.38l10.38,0h0a7.29,7.29,0,0,0,5.94-11.5L170.87,3.07A7.31,7.31,0,0,0,165,0h-.06a7.31,7.31,0,0,0-5.87,3L145.28,21.7a7.29,7.29,0,0,0,5.84,11.61l10.32,0m-11-7a.8.8,0,0,1,.07-.88L164.25,6.79h0a.81.81,0,0,1,.68-.34h0a.81.81,0,0,1,.68.35L179,25.65A.84.84,0,0,1,178.3,27h0l-27.15-.12A.8.8,0,0,1,150.4,26.4Z" style="fill:#898989"/><rect x="142.85" y="46.98" width="44.01" height="6.45" rx="2.48" ry="2.48" transform="translate(114.65 215.05) rotate(-90)" style="fill:#898989"/><path d="M161.69,160.22l-10.38,0h0a7.29,7.29,0,0,0-5.94,11.5l13.37,18.85a7.31,7.31,0,0,0,5.88,3.07h.06a7.31,7.31,0,0,0,5.87-3L184.3,171.9a7.29,7.29,0,0,0-5.84-11.61l-10.32,0m11,7a.8.8,0,0,1-.07.88l-13.78,18.73h0a.81.81,0,0,1-.68.34h0a.81.81,0,0,1-.68-.35L150.59,168a.84.84,0,0,1,.69-1.33h0l27.15.12A.8.8,0,0,1,179.18,167.2Z" style="fill:#898989"/><rect x="142.72" y="140.18" width="44.01" height="6.45" rx="2.48" ry="2.48" transform="translate(308.13 -21.32) rotate(90)" style="fill:#898989"/></g></g></svg>