<svg xmlns="http://www.w3.org/2000/svg" viewBox="0 0 184.61 191.83"><title>center</title><g id="d0087cd0-a466-467f-83a3-799132edeb83" data-name="Layer 2"><g id="5cae9567-5c96-4737-aa7e-f7d0262c4270" data-name="ICONS"><path d="M172.61,9a3,3,0,0,1,3,3V179.83a3,3,0,0,1-3,3H12a3,3,0,0,1-3-3V12a3,3,0,0,1,3-3H172.61m0-9H12A12,12,0,0,0,0,12V179.83a12,12,0,0,0,12,12H172.61a12,12,0,0,0,12-12V12a12,12,0,0,0-12-12Z"/><path d="M90.08,45.33l-7.29,0h0a5.12,5.12,0,0,0-4.18,8.09L88,66.63a5.13,5.13,0,0,0,4.13,2.16h0a5.14,5.14,0,0,0,4.13-2.09L106,53.54a5.12,5.12,0,0,0-4.1-8.16l-7.25,0m7.76,4.89a.56.56,0,0,1-.05.62L92.64,64h0a.57.57,0,0,1-.48.24h0a.57.57,0,0,1-.48-.25l-9.4-13.25a.59.59,0,0,1,.48-.93h0l19.08.08A.56.56,0,0,1,102.37,50.23Z"/><rect x="70.57" y="23.71" width="43.28" height="4.53" rx="2.27" ry="2.27" transform="translate(118.18 -66.24) rotate(90)"/><path d="M45.48,98.14l0,7.29v0a5.12,5.12,0,0,0,8.09,4.18l13.25-9.4a5.13,5.13,0,0,0,2.16-4.13v0a5.14,5.14,0,0,0-2.09-4.13L53.68,82.25a5.12,5.12,0,0,0-8.16,4.1l0,7.25m4.89-7.76a.56.56,0,0,1,.62.05l13.16,9.68h0a.57.57,0,0,1,.24.48h0a.57.57,0,0,1-.25.48l-13.25,9.4a.59.59,0,0,1-.93-.48h0l.08-19.08A.56.56,0,0,1,50.38,85.85Z"/><rect x="4.48" y="93.74" width="43.28" height="4.53" rx="2.27" ry="2.27"/><path d="M137.83,93.61l0-7.25a5.12,5.12,0,0,0-8.16-4.1l-13.16,9.68a5.14,5.14,0,0,0-2.09,4.13v0a5.13,5.13,0,0,0,2.16,4.13l13.25,9.4a5.12,5.12,0,0,0,8.09-4.18v0l0-7.29m-4.58-11.77.08,19.08h0a.59.59,0,0,1-.93.48l-13.25-9.4a.57.57,0,0,1-.25-.48h0a.57.57,0,0,1,.24-.48h0l13.16-9.68a.59.59,0,0,1,.94.47Z"/><rect x="135.57" y="93.74" width="43.28" height="4.53" rx="2.27" ry="2.27" transform="translate(314.41 192.01) rotate(180)"/><path d="M94.52,146.19l7.25,0a5.12,5.12,0,0,0,4.1-8.16L96.2,124.84a5.14,5.14,0,0,0-4.13-2.09h0a5.13,5.13,0,0,0-4.13,2.16l-9.4,13.25a5.12,5.12,0,0,0,4.18,8.09h0l7.29,0m11.77-4.58-19.08.08h0a.59.59,0,0,1-.48-.93l9.4-13.25a.57.57,0,0,1,.48-.25h0a.57.57,0,0,1,.48.24h0l9.68,13.16a.59.59,0,0,1-.47.94Z"/><rect x="70.48" y="163.3" width="43.28" height="4.53" rx="2.27" ry="2.27" transform="translate(-73.44 257.68) rotate(-90)"/><circle cx="92.12" cy="95.92" r="7"/></g></g></svg>