<svg xmlns="http://www.w3.org/2000/svg" viewBox="0 0 184.61 191.9"><title>clearplatf</title><g id="06a40f2e-0e87-4979-a289-29d620a42774" data-name="Layer 2"><g id="f047e746-9ece-4e1a-8b7d-3ac62f43114f" data-name="ICONS"><path d="M172.61.07H57.16a7.56,7.56,0,0,0-1-.07,7.44,7.44,0,0,0-1,.07H53.06L51,2.15l-.08.07L2.3,50.81,2.14,51,0,53.14V179.9a12,12,0,0,0,12,12H172.61a12,12,0,0,0,12-12V12.07A12,12,0,0,0,172.61.07ZM15.52,50.32,50.25,15.59h0l4.53-4.53V54.7H11.17l4.37-4.37ZM175.61,179.9a3,3,0,0,1-3,3H12a3,3,0,0,1-3-3V63.7H56.23a7.55,7.55,0,0,0,7.55-7.55V9.07H172.61a3,3,0,0,1,3,3Z" style="fill:#231f20"/></g></g></svg>