<svg xmlns="http://www.w3.org/2000/svg" viewBox="0 0 186.9 186"><title>cube</title><g id="37b98aa7-9c2b-4b36-bd23-84766b7c9e2c" data-name="Layer 2"><g id="8185dc0a-3421-44ea-ad58-fceeab6ce1d7" data-name="ICONS"><path d="M186.88,37.88c0-3.83-1.68-6-5.65-7.38-14-4.71-28.21-9.76-40.77-14.23C130,12.56,119.34,8.73,109.05,5L95.31.09,95.07,0H91.78l-.29.13L90.33.66a25,25,0,0,1-2.31,1L74.51,6.41c-22.42,7.88-45.59,16-68.44,23.93C1.8,31.81,0,34.19,0,38.29c.1,30.94.11,63.25,0,98.78,0,3.36,1.42,5.46,4.77,7,13.88,6.52,28.11,13.29,43.49,20.71,10.05,4.85,20.24,9.83,30.1,14.65l13.08,6.39.31.15h3.48l.36-.22.83-.54a13.13,13.13,0,0,1,1.56-.94c28.22-13.51,55.87-26.74,83.74-40,2.63-1.25,5.19-2.81,5.18-6.8C186.81,107.17,186.8,74.59,186.88,37.88ZM88.81,150.27q0,12.19,0,24.37l-5.21-2.47c-5-2.36-9.89-4.68-14.77-7L48.7,155.51q-18.42-8.84-36.86-17.64c-2.11-1-2.68-1.51-2.67-3.12.1-23,.1-46.29.09-68.86q0-11.1,0-22.21c0-.07,0-.15,0-.23l9.79,4L43.81,57.74l16.86,7Q73.34,70,86,75.25l.11,0c2.11.87,2.78,1.22,2.78,2.83C88.81,102.18,88.81,126.63,88.81,150.27Zm9.22-71c0-2.14.17-3,2.11-3.75,18.62-7.63,37.5-15.47,55.76-23.05l20.9-8.67c.25-.11.53-.2.84-.29V65c0,22.49,0,45.75.1,68.62,0,2.37-.67,3.35-3.15,4.52-18.08,8.55-36.41,17.34-54.14,25.83l-19.63,9.4c-.85.41-1.73.78-2.74,1.21v-21C98.08,129.26,98.08,104,98,79.23Zm69.82-41.05c-5.23,2.19-10.19,4.27-15.16,6.33L146.59,47C129.93,54,112.7,61.1,95.72,68a6.08,6.08,0,0,1-3.8.29C69,58.94,45.84,49.3,23.4,40l-8.52-3.54,38.74-13.6,8.79-3.09c9.23-3.25,18.77-6.62,28.2-9.81a8.63,8.63,0,0,1,5-.3c21.38,7.41,42.39,14.81,64.62,22.65L172,36.44Z"/></g></g></svg>