<svg xmlns="http://www.w3.org/2000/svg" viewBox="0 0 186.83 184.33"><title>deleteall_white</title><g id="f4680cee-0d16-418c-bdbb-b9f4f01265b0" data-name="Layer 2"><g id="ed991aa3-25b7-450a-be18-98cb5a46f948" data-name="ICONS"><path d="M181.92,174.5H4.92A4.93,4.93,0,0,0,0,179.41H0a4.93,4.93,0,0,0,4.92,4.92h177a4.93,4.93,0,0,0,4.92-4.92h0A4.93,4.93,0,0,0,181.92,174.5Z" style="fill:#fff"/><path d="M181.92,152.58H81.73L86,148.32a12.53,12.53,0,0,0,15.89-1.47l81.3-81.3a12.54,12.54,0,0,0,0-17.68L139,3.65a12.54,12.54,0,0,0-17.68,0L40,84.95a12.54,12.54,0,0,0-1.47,15.89L20.29,119.07a12.54,12.54,0,0,0,0,17.68l15.83,15.83H4.92a4.92,4.92,0,0,0,0,9.83h177a4.92,4.92,0,1,0,0-9.83Zm-135.3-61,81.3-81.3a3.16,3.16,0,0,1,4.42,0l44.22,44.22a3.17,3.17,0,0,1,0,4.42l-81.3,81.3a3.16,3.16,0,0,1-4.42,0l-.37-.37L47,96.37,46.62,96a3.16,3.16,0,0,1,0-4.42Zm-19.7,38.54a3.16,3.16,0,0,1,0-4.42L45,107.63l34.22,34.22L68.47,152.58H49.38Z" style="fill:#fff"/></g></g></svg>