<svg xmlns="http://www.w3.org/2000/svg" viewBox="0 0 164.61 186.06"><title>delete_white</title><g id="4fc2eab7-c6a1-449f-a389-2b0d9bd5032d" data-name="Layer 2"><g id="3c3f88ca-2c53-4247-910d-f83cf3775103" data-name="ICONS"><rect x="43.35" y="64.47" width="9.96" height="95.19" rx="4.27" ry="4.27" style="fill:#fff"/><rect x="77.32" y="64.47" width="9.96" height="95.19" rx="4.27" ry="4.27" style="fill:#fff"/><rect x="111.18" y="64.47" width="9.96" height="95.19" rx="4.27" ry="4.27" style="fill:#fff"/><path d="M152.61,22.81H124C111.16,7.68,97.14,0,82.25,0h-.46C59.68.24,43,17.34,38.28,22.81H12a12,12,0,0,0-12,12v8a12,12,0,0,0,12,12h1V174.06a12,12,0,0,0,12,12H139.59a12,12,0,0,0,12-12V54.79h1a12,12,0,0,0,12-12v-8A12,12,0,0,0,152.61,22.81ZM81.93,9c10.31-.09,20.28,4.55,29.78,13.81H51C57.77,16.78,68.91,9.12,81.93,9Zm60.67,165.06a3,3,0,0,1-3,3H25a3,3,0,0,1-3-3V54.79H142.59Zm13-131.27a3,3,0,0,1-3,3H12a3,3,0,0,1-3-3v-8a3,3,0,0,1,3-3H152.61a3,3,0,0,1,3,3Z" style="fill:#fff"/></g></g></svg>