<svg xmlns="http://www.w3.org/2000/svg" viewBox="0 0 186.1 193"><title>download</title><g id="f4f9d3ff-eefd-497e-aab4-e60fc8e18977" data-name="Layer 2"><g id="e25f3d80-e370-416c-9240-5c37e5531925" data-name="ICONS"><path d="M143.71,53a17.77,17.77,0,0,0-15.87-9.83L102.55,43h-.32V4.27A4.27,4.27,0,0,0,98,0H88.13a4.27,4.27,0,0,0-4.27,4.27V43l-22.52-.1h-.08A17.85,17.85,0,0,0,46.7,71l32.76,46.17a17.9,17.9,0,0,0,14.41,7.52H94a17.9,17.9,0,0,0,14.38-7.28l33.74-45.88A17.76,17.76,0,0,0,143.71,53Zm-14.29,9.25L95.68,108.1h0a2,2,0,0,1-1.66.84h0a2,2,0,0,1-1.66-.87L59.58,61.9a2.06,2.06,0,0,1,1.68-3.26h0l25.9.11a4.25,4.25,0,0,0,1,.12H98a4.23,4.23,0,0,0,.67-.07l29.13.13a2.06,2.06,0,0,1,1.65,3.28Z"/><path d="M174.1,116.33H143.26a13.18,13.18,0,0,0-9.32,3.86l-29.87,37.34a13.42,13.42,0,0,1-19,0L54.71,119.68a11.46,11.46,0,0,0-8.11-3.36H12a12,12,0,0,0-12,12V181a12,12,0,0,0,12,12H174.1a12,12,0,0,0,12-12V128.33A12,12,0,0,0,174.1,116.33Z"/></g></g></svg>