<svg xmlns="http://www.w3.org/2000/svg" viewBox="0 0 184.61 191.83"><title>duplicate_white</title><g id="4c50507e-c0bf-43a6-9ecb-745271fc8146" data-name="Layer 2"><g id="2a1e0cb0-ac81-4d70-86de-bbba4de4b62a" data-name="ICONS"><path d="M172.61,0H44.67a12,12,0,0,0-12,12V33.95h9V12a3,3,0,0,1,3-3H172.61a3,3,0,0,1,3,3V145.89a3,3,0,0,1-3,3H151.94v9h20.67a12,12,0,0,0,12-12V12A12,12,0,0,0,172.61,0Z" style="fill:#fff"/><path d="M151.94,45.95a12,12,0,0,0-12-12H12a12,12,0,0,0-12,12V179.83a12,12,0,0,0,12,12H139.94a12,12,0,0,0,12-12V45.95Zm-9,133.89a3,3,0,0,1-3,3H12a3,3,0,0,1-3-3V45.95a3,3,0,0,1,3-3H139.94a3,3,0,0,1,3,3V179.83Z" style="fill:#fff"/><rect x="37.8" y="109.71" width="76.33" height="7.99" rx="4" ry="4" transform="translate(151.94 227.41) rotate(180)" style="fill:#fff"/><rect x="37.8" y="108.89" width="76.33" height="7.99" rx="4" ry="4" transform="translate(-36.92 188.86) rotate(-90)" style="fill:#fff"/></g></g></svg>