<svg xmlns="http://www.w3.org/2000/svg" viewBox="0 0 184.61 191.83"><title>duplicate_grey</title><g id="7d5df44a-04d6-41b6-83a1-66b91d8ab751" data-name="Layer 2"><g id="82a62dbb-a9f2-4f76-8e86-06832407abd4" data-name="ICONS"><path d="M172.61,0H44.67a12,12,0,0,0-12,12V33.95h9V12a3,3,0,0,1,3-3H172.61a3,3,0,0,1,3,3V145.89a3,3,0,0,1-3,3H151.94v9h20.67a12,12,0,0,0,12-12V12A12,12,0,0,0,172.61,0Z" style="fill:#898989"/><path d="M151.94,45.95a12,12,0,0,0-12-12H12a12,12,0,0,0-12,12V179.83a12,12,0,0,0,12,12H139.94a12,12,0,0,0,12-12V45.95Zm-9,133.89a3,3,0,0,1-3,3H12a3,3,0,0,1-3-3V45.95a3,3,0,0,1,3-3H139.94a3,3,0,0,1,3,3V179.83Z" style="fill:#898989"/><rect x="37.8" y="109.71" width="76.33" height="7.99" rx="4" ry="4" transform="translate(151.94 227.41) rotate(180)" style="fill:#898989"/><rect x="37.8" y="108.89" width="76.33" height="7.99" rx="4" ry="4" transform="translate(-36.92 188.86) rotate(-90)" style="fill:#898989"/></g></g></svg>