<svg xmlns="http://www.w3.org/2000/svg" viewBox="0 0 184.61 191.83"><title>duplicate</title><g id="d454117a-e976-4cef-9b9f-e850a508f2cb" data-name="Layer 2"><g id="446a6b3f-32b8-4825-831f-a5d7a0d6fb7b" data-name="ICONS"><path d="M172.61,0H44.67a12,12,0,0,0-12,12V33.95h9V12a3,3,0,0,1,3-3H172.61a3,3,0,0,1,3,3V145.89a3,3,0,0,1-3,3H151.94v9h20.67a12,12,0,0,0,12-12V12A12,12,0,0,0,172.61,0Z"/><path d="M151.94,45.95a12,12,0,0,0-12-12H12a12,12,0,0,0-12,12V179.83a12,12,0,0,0,12,12H139.94a12,12,0,0,0,12-12V45.95Zm-9,133.89a3,3,0,0,1-3,3H12a3,3,0,0,1-3-3V45.95a3,3,0,0,1,3-3H139.94a3,3,0,0,1,3,3V179.83Z"/><rect x="37.8" y="109.71" width="76.33" height="7.99" rx="4" ry="4" transform="translate(151.94 227.41) rotate(180)"/><rect x="37.8" y="108.89" width="76.33" height="7.99" rx="4" ry="4" transform="translate(-36.92 188.86) rotate(-90)"/></g></g></svg>