<svg xmlns="http://www.w3.org/2000/svg" viewBox="0 0 188.35 192.44"><title>edit_white</title><g id="127df4ab-c535-4142-a8db-2f172bceeb3d" data-name="Layer 2"><g id="b5d94560-0c3e-41cb-ae6b-f1c313df90a6" data-name="ICONS"><path d="M158.34,86.48v81.43a15.58,15.58,0,0,1-15.56,15.56H24.53A15.58,15.58,0,0,1,9,167.91V43.53A15.58,15.58,0,0,1,24.53,28H103.3l9-9H24.53A24.6,24.6,0,0,0,0,43.53V167.91a24.6,24.6,0,0,0,24.53,24.53H142.78a24.6,24.6,0,0,0,24.53-24.53V77.51Z" style="fill:#fff"/><path d="M150,0,55.33,91.1v39.06h39.5l93.52-93.52Zm0,9.7,28.33,27.06-8.08,8.08L142.52,16.91ZM64.58,91.91l72.89-70.15,27.84,28L93.79,121.3Zm-2.25,7.66,23.43,23.58H62.33Z" style="fill:#fff"/></g></g></svg>