<svg xmlns="http://www.w3.org/2000/svg" viewBox="0 0 186.83 188"><title>extrusor_white</title><g id="d0e561e9-1e42-4115-8fd1-0b80f893d425" data-name="Layer 2"><g id="d35223bc-5f37-4d5d-b658-1d69517e2275" data-name="ICONS"><polygon points="61.89 153.81 93.48 188 124.95 153.95 61.89 153.81" style="fill:#fff"/><path d="M164.78,9a13.07,13.07,0,0,1,13.06,13.06v95.43a13.07,13.07,0,0,1-13.06,13.06H22.06A13.07,13.07,0,0,1,9,117.48V22.06A13.07,13.07,0,0,1,22.06,9H164.78m0-9H22.06A22.06,22.06,0,0,0,0,22.06v95.43a22.06,22.06,0,0,0,22.06,22.06H164.78a22.06,22.06,0,0,0,22.06-22.06V22.06A22.06,22.06,0,0,0,164.78,0Z" style="fill:#fff"/></g></g></svg>