<svg xmlns="http://www.w3.org/2000/svg" viewBox="0 0 185.44 177.76"><title>favorite_grey</title><g id="ed21e237-2028-451b-9bde-b9462378d196" data-name="Layer 2"><g id="634302ac-785b-41ec-8a1f-2b6596becdbd" data-name="ICONS"><g id="c369ba63-6e1c-4775-b52c-42d73152f0c5" data-name="RBiA3l.tif"><path d="M35.31,177.32a336.47,336.47,0,0,1,10.42-34.73c3.75-10.79,6.39-21.94,11.28-32.66L.06,68.18c-.09.32-.09.09,0,0s.39-.42.6-.42c23.06,0,46.13,0,69.91,0,3.57-11,7.27-22,10.78-33.11S87.85,12.17,93,0l22.37,67.78h70.08c-18.29,15.4-38.74,27.19-56.36,42.49l21.78,67.49c-10.4-6.61-19.52-14.16-29.29-20.83-8.43-5.75-16.66-11.93-24.74-18.22-2.44-1.9-3.81-1.8-6.64-.43-5.26,2.55-9.28,6.62-14,9.75-6.66,4.39-12.88,9.44-19.36,14.1-4.63,3.33-9.38,6.47-14.05,9.74C40.51,173.43,38.35,175.08,35.31,177.32Z" style="fill:#898989"/><path d="M36.09,176.45,35,177.74l-.5-.5,1.29-1.1Z" style="fill:#898989"/></g></g></g></svg>