<svg xmlns="http://www.w3.org/2000/svg" viewBox="0 0 186.74 193.87"><title>filter_white</title><g id="1ddfe33e-144d-42d0-bc3a-c1d5bed6f4db" data-name="Layer 2"><g id="3ff891b7-b515-4c40-81ac-3163c52b3077" data-name="ICONS"><path d="M177.71,9l-.14,6.29-69.7,80.87a9,9,0,0,0-2.18,5.88V183.2L81,170V105.79a9,9,0,0,0-2.06-5.74L9,15.48V9H177.71m1.11-9H7.91A7.91,7.91,0,0,0,0,7.91v8a7.91,7.91,0,0,0,1.81,5L72,105.79v64.36a8.33,8.33,0,0,0,4,7.43l29.28,15.6a5.72,5.72,0,0,0,2.7.7c3.53,0,6.7-3.45,6.7-8.12V102l70-81.16a7.91,7.91,0,0,0,1.92-5l.17-7.79A7.91,7.91,0,0,0,178.83,0Z" style="fill:#fff"/></g></g></svg>