<svg xmlns="http://www.w3.org/2000/svg" viewBox="0 0 186.92 186.92"><title>help_grey</title><g id="3e93b56b-108b-4d18-b5fa-1a1d08820180" data-name="Layer 2"><g id="e9a83b1d-18b4-4888-81d4-26245b4b5651" data-name="ICONS"><path d="M93.46,9A84.46,84.46,0,1,1,9,93.46,84.55,84.55,0,0,1,93.46,9m0-9a93.46,93.46,0,1,0,93.46,93.46A93.46,93.46,0,0,0,93.46,0Z" style="fill:#898989"/><path d="M123.61,70.8q0,8.69-7.14,17.94l-9.68,12.19a10.61,10.61,0,0,0-1.85,3.22,9.73,9.73,0,0,0-.69,3.35v1.3H81.3v-3.22a24.76,24.76,0,0,1,1.29-8.35A23.15,23.15,0,0,1,87,90l9.76-11.5q3.82-4.31,3.82-7.8a8.91,8.91,0,0,0-2.11-6.23q-2.12-2.33-6.27-2.33t-6.31,2.4a9.48,9.48,0,0,0-2.08,6.44h-23a30.59,30.59,0,0,1,2.5-12.63A26.63,26.63,0,0,1,70,49,29.57,29.57,0,0,1,80,43.35a37.2,37.2,0,0,1,12.29-2q13.21,0,22.28,7.74T123.61,70.8Zm-19,71.2H81V119.41h23.55Z" style="fill:#898989"/></g></g></svg>