<svg xmlns="http://www.w3.org/2000/svg" viewBox="0 0 199.64 199.64"><title>highdens</title><g id="db604f3d-16ed-4deb-a495-678ea9a11bad" data-name="Layer 2"><g id="7e366a9c-8b05-418f-be77-8a11c3ef4b3d" data-name="ICONS"><path d="M52.45,47.37h0L46.79,53h0L0,99.82l99.82,99.82,99.82-99.82L99.82,0Zm65.69-17.74L100.78,47,82.37,28.77,99.82,11.31ZM96.06,102.29,78.36,120,59,100.69,76.75,83ZM82.08,77l18.73-18.73L120.55,77.8,101.72,96.64ZM72.7,125.65,54.92,143.43,35.61,124.12l17.78-17.78Zm5.66,5.66,18.11,18.11L78.68,167.19,60.58,149.09ZM84,125.65l17.7-17.7,18.11,18.11-17.7,17.7Zm41.46,6.06L141,147.19l-17.7,17.7-15.48-15.48Zm5.66-5.66L150,107.21l15.48,15.48-18.85,18.85Zm-5.66-5.66-18.11-18.11,18.85-18.85,18.11,18.11Zm6.4-42.61,17.21-17.21,18.11,18.11L150,95.9Zm-5.67-5.65L106.47,52.61l17.33-17.33,19.64,19.64ZM76.71,34.43,95.12,52.64l-18.7,18.7L58.11,53ZM71.1,77.33,53.39,95,34.75,76.39l17.7-17.7ZM29.09,82l18.64,18.64L30,118.47,11.31,99.82Zm55.25,90.81,17.78-17.78,15.48,15.48L99.82,188.33ZM171.12,117l-15.48-15.48,17.21-17.21,15.48,15.48Z" style="fill:#231f20"/></g></g></svg>