<svg xmlns="http://www.w3.org/2000/svg" viewBox="0 0 197.57 197.49"><title>highestres</title><g id="c92889c8-6b64-43e0-8beb-de7c322c405b" data-name="Layer 2"><g id="92eb93a4-da2e-450f-a091-e9cc86ed6e8c" data-name="ICONS"><rect x="41.73" y="49.7" width="114.15" height="6.97" style="fill:#231f20"/><rect x="58.4" y="33.13" width="80.63" height="6.97" style="fill:#231f20"/><rect x="50.04" y="41.42" width="97.39" height="6.97" style="fill:#231f20"/><rect x="83.51" y="8.28" width="30.56" height="6.97" style="fill:#231f20"/><rect x="91.79" width="13.99" height="6.97" style="fill:#231f20"/><rect x="75.06" y="16.57" width="47.35" height="6.97" style="fill:#231f20"/><rect x="66.8" y="24.85" width="63.92" height="6.97" style="fill:#231f20"/><rect x="33.41" y="57.98" width="130.88" height="6.97" style="fill:#231f20"/><rect x="8.77" y="82.83" width="180.41" height="6.97" style="fill:#231f20"/><rect y="91.12" width="197.57" height="6.97" style="fill:#231f20"/><rect x="16.52" y="74.55" width="164.38" height="6.97" style="fill:#231f20"/><rect x="25.24" y="66.27" width="147.21" height="6.97" style="fill:#231f20"/><rect x="41.7" y="140.82" width="114.15" height="6.97" style="fill:#231f20"/><rect x="58.54" y="157.39" width="80.63" height="6.97" style="fill:#231f20"/><rect x="50.15" y="149.1" width="97.39" height="6.97" style="fill:#231f20"/><rect x="83.51" y="182.24" width="30.56" height="6.97" style="fill:#231f20"/><rect x="91.79" y="190.52" width="13.99" height="6.97" style="fill:#231f20"/><rect x="75.17" y="173.95" width="47.35" height="6.97" style="fill:#231f20"/><rect x="66.85" y="165.67" width="63.92" height="6.97" style="fill:#231f20"/><rect x="33.28" y="132.54" width="130.88" height="6.97" style="fill:#231f20"/><rect x="8.39" y="107.68" width="180.41" height="6.97" style="fill:#231f20"/><rect y="99.4" width="197.57" height="6.97" style="fill:#231f20"/><rect x="16.68" y="115.97" width="164.38" height="6.97" style="fill:#231f20"/><rect x="25.13" y="124.25" width="147.21" height="6.97" style="fill:#231f20"/></g></g></svg>