<svg xmlns="http://www.w3.org/2000/svg" viewBox="0 0 199.37 152.09"><title>highplus_grey</title><g id="f8423f99-5ed6-4735-b660-504c338ea9af" data-name="Layer 2"><g id="2be9f688-ac6a-43d3-9d46-e2ed49a9aff5" data-name="ICONS"><rect x="1.7" y="127.56" width="195.67" height="5.4" style="fill:#898989"/><rect x="0.89" y="133.94" width="197.44" height="5.4" style="fill:#898989"/><rect x="0.41" y="140.31" width="198.35" height="5.4" style="fill:#898989"/><rect y="146.69" width="199.37" height="5.4" style="fill:#898989"/><rect x="6.08" y="102.05" width="186.92" height="5.4" style="fill:#898989"/><rect x="4.31" y="108.42" width="189.94" height="5.4" style="fill:#898989"/><rect x="2.84" y="114.8" width="192.86" height="5.4" style="fill:#898989"/><rect x="2.34" y="121.18" width="194.01" height="5.4" style="fill:#898989"/><rect x="12.75" y="76.53" width="173.88" height="5.4" style="fill:#898989"/><rect x="10.96" y="82.91" width="177.05" height="5.4" style="fill:#898989"/><rect x="9.23" y="89.29" width="180.55" height="5.4" style="fill:#898989"/><rect x="7.54" y="95.67" width="183.65" height="5.4" style="fill:#898989"/><rect x="20.88" y="51.02" width="157.31" height="5.4" style="fill:#898989"/><rect x="18.7" y="57.4" width="161.3" height="5.4" style="fill:#898989"/><rect x="16.93" y="63.78" width="164.91" height="5.4" style="fill:#898989"/><rect x="14.67" y="70.16" width="169.37" height="5.4" style="fill:#898989"/><rect x="49" width="101.08" height="5.4" style="fill:#898989"/><rect x="44.56" y="6.38" width="109.42" height="5.4" style="fill:#898989"/><rect x="40.62" y="12.76" width="117.31" height="5.4" style="fill:#898989"/><rect x="37.33" y="19.13" width="124.6" height="5.4" style="fill:#898989"/><rect x="33.48" y="25.51" width="132.12" height="5.4" style="fill:#898989"/><rect x="30.02" y="31.89" width="138.35" height="5.4" style="fill:#898989"/><rect x="26.74" y="38.27" width="145.07" height="5.4" style="fill:#898989"/><rect x="24.16" y="44.65" width="150.72" height="5.4" style="fill:#898989"/></g></g></svg>