<svg xmlns="http://www.w3.org/2000/svg" viewBox="0 0 185.34 191.98"><title>home_white</title><g id="589c58c6-8f3d-427d-b23a-c1c4b3393288" data-name="Layer 2"><g id="02ba13ac-f9d7-4724-8ca4-d051a0e66082" data-name="ICONS"><path d="M89,179.37V191c0,.54,1.91,1,4.27,1h1.43c2.36,0,4.27-.44,4.27-1V179.41q-2.12.05-4.3.05Q91.82,179.46,89,179.37Z" style="fill:#fff"/><path d="M173.16,101.19H184.4c.52,0,.94-1.91.94-4.27V95.49c0-2.36-.42-4.27-.94-4.27H173.2q0,2.12.05,4.3Q173.25,98.4,173.16,101.19Z" style="fill:#fff"/><path d="M12,91.22H.93c-.51,0-.93,1.91-.93,4.27v1.43c0,2.36.42,4.27.93,4.27h11q0-2.12-.05-4.3Q11.87,94,12,91.22Z" style="fill:#fff"/><path d="M99,14.51V1.13C99,.5,97.1,0,94.74,0H93.31C91,0,89,.5,89,1.13V14.46q2.12-.06,4.3-.06Q96.23,14.4,99,14.51Z" style="fill:#fff"/><path d="M95,57.35l42.49,43v49.43H121.65V114.65a10,10,0,0,0-9.95-9.95h-35a10,10,0,0,0-9.95,9.95v35.13H53V96.16L95,57.35m.31-13.84L43.06,91.81v67.92H77.72V114.65h34v45.08h35.73V96.27L95.31,43.51Z" style="fill:#fff"/><path d="M26.78,100.59a5,5,0,0,1-3.52-8.49c6-6,66.08-60.59,68.63-62.91a5,5,0,0,1,6.83.13l64,62.75a5,5,0,0,1-7,7.1L95.12,39.7C81.9,51.72,35.3,94.13,30.3,99.13A5,5,0,0,1,26.78,100.59Z" style="fill:#fff"/></g></g></svg>