<svg xmlns="http://www.w3.org/2000/svg" viewBox="0 0 186.37 168.62"><title>import_1</title><g id="6440b405-7fef-4dac-8d43-b19c7f2250e5" data-name="Layer 2"><g id="5a61e1fe-018f-4c77-b3a9-88a81a333512" data-name="ICONS"><path d="M127.8,79.15a12.5,12.5,0,0,0-11.17-6.92l-17.79-.08h-.22V3a3,3,0,0,0-3-3H88.69a3,3,0,0,0-3,3V72.1L69.84,72h-.06A12.56,12.56,0,0,0,59.54,91.86l23,32.49a12.59,12.59,0,0,0,10.14,5.29h.11A12.6,12.6,0,0,0,103,124.52L126.7,92.23A12.5,12.5,0,0,0,127.8,79.15Zm-10.05,6.51L94,117.94h0a1.4,1.4,0,0,1-1.17.59h0a1.4,1.4,0,0,1-1.17-.61l-23-32.49a1.45,1.45,0,0,1,1.18-2.29h0L88,83.22a3,3,0,0,0,.67.08h6.92a3,3,0,0,0,.47,0l20.5.09a1.45,1.45,0,0,1,1.16,2.31Z"/><path d="M174.37,48.09H130v9h44.4a3,3,0,0,1,3,3v96.53a3,3,0,0,1-3,3H12a3,3,0,0,1-3-3V60.09a3,3,0,0,1,3-3H56.46v-9H12a12,12,0,0,0-12,12v96.53a12,12,0,0,0,12,12H174.37a12,12,0,0,0,12-12V60.09A12,12,0,0,0,174.37,48.09Z" style="fill:#231f20"/></g></g></svg>