<svg xmlns="http://www.w3.org/2000/svg" viewBox="0 0 64.51 141.76"><title>import</title><g id="c248546b-9c56-4059-9eda-179c61571b39" data-name="Layer 2"><g id="c8f68a1e-7f70-4b92-87f3-bd4fa854079d" data-name="ICONS"><path d="M62.43,33.88,41.76,4.75A11.29,11.29,0,0,0,32.66,0h-.09a11.3,11.3,0,0,0-9.08,4.59L2.2,33.55a11.27,11.27,0,0,0,9,17.94l16,.07h.29V137.5a4.27,4.27,0,0,0,4.27,4.27h1.43a4.27,4.27,0,0,0,4.27-4.27V51.6l15.75.07h0a11.27,11.27,0,0,0,9.19-17.78Zm-8,7.12a1.24,1.24,0,0,1-1.15.7h0l-42-.18a1.3,1.3,0,0,1-1-2.07l21.29-29h0a1.25,1.25,0,0,1,1-.53h0a1.26,1.26,0,0,1,1.05.55L54.3,39.65A1.24,1.24,0,0,1,54.39,41Z"/></g></g></svg>