<svg xmlns="http://www.w3.org/2000/svg" viewBox="0 0 199.64 199.64"><title>infill4</title><g id="1fc48fdd-a328-4698-ba75-a50c5f872a8c" data-name="Layer 2"><g id="699459db-68f3-40c6-9431-f7251b086edf" data-name="ICONS"><path d="M52.45,47.37h0L46.79,53h0L0,99.82l99.82,99.82,99.82-99.82L99.82,0ZM106,17.53l-6,6-6.22-6.22,6-6ZM95.39,101.62l-4.83,4.83-6.31-6.31,4.83-4.83Zm-.66-12,6.53-6.53,6.31,6.31L101,96ZM84.9,112.1l-7.22,7.22L71.37,113l7.22-7.22Zm5.66,5.66,5,5L88.38,130l-5-5Zm5.66-5.66,4.83-4.83,5,5-4.83,4.83ZM111.74,118l5.68,5.68-4.83,4.83-5.68-5.68Zm5.66-5.66,6.53-6.53,5.68,5.68L123.07,118Zm-5.66-5.66-5-5,6.53-6.53,5,5Zm7.14-17.22,6.66-6.66,5,5-6.66,6.66Zm-5.66-5.66-6.31-6.31,6.62-6.62,6.35,6.28Zm-12-12-7-7,6.55-6.55,7,7ZM95.6,77.47,89.07,84l-7-7,6.53-6.53ZM83.41,89.65l-4.83,4.83-6.66-6.66L76.75,83ZM72.93,100.13l-7.22,7.22L59,100.69l7.22-7.22ZM60.06,113l-6.21,6.21-6.66-6.66,6.21-6.21Zm5.66,5.66L72,125l-6.21,6.21-6.31-6.31Zm12,12,5,5-6.21,6.21-5-5Zm10.7,10.7L94.06,147l-6.21,6.21-5.68-5.68ZM94,135.67l7.22-7.22,5.68,5.68-7.22,7.22Zm18.55,4.12,6.51,6.51-7.22,7.22L105.37,147Zm5.66-5.66,4.83-4.83,6.51,6.51-4.83,4.83Zm10.48-10.48,6.53-6.53,6.51,6.51-6.53,6.53Zm12.18-12.18,6.66-6.66,6.51,6.51L147.42,118Zm-5.66-5.66-5.68-5.68,6.66-6.66,5.68,5.68Zm6.64-18,5.52-5.52L153.1,88l-5.52,5.52Zm-5.66-5.66-5-5,5.52-5.52,5,5ZM125.53,71.47l-6.35-6.28,5.57-5.57,6.31,6.31Zm-12-11.91-7-7L112.11,47l7,7ZM100.78,47l-6.47-6.4,5.7-5.7,6.44,6.44ZM88.62,35l-6.25-6.19L88.13,23l6.22,6.22ZM83,40.61l-6.45,6.45-6.22-6.22,6.42-6.42Zm5.69,5.63,6.47,6.4-6.52,6.52-6.44-6.44Zm-5.7,18.58-6.53,6.53L70,64.9l6.53-6.53ZM71.1,77.33l-4.83,4.83L59.5,75.39l4.83-4.83ZM60.61,87.81,53.39,95l-6.77-6.77L53.84,81ZM41,82.61l-6.22-6.22L42,69.17l6.22,6.22Zm-5.66,5.66L29.1,94.48l-6.22-6.22L29.09,82ZM41,93.92l6.77,6.77-6.21,6.21-6.77-6.77Zm-5.1,18.64L30,118.47l-6.77-6.77,5.91-5.91Zm5.66,5.66,6.66,6.66-5.91,5.91-6.66-6.66Zm12.32,12.32,6.31,6.31-5.91,5.91-6.31-6.31Zm12,12,5,5-5.91,5.91-5-5Zm10.7,10.7,5.68,5.68-5.91,5.91-5.68-5.68Zm11.33,11.33L94.35,171,88.44,177l-6.51-6.51Zm5.66-5.66,6.21-6.21,6.51,6.51L100,165.39Zm18.38,6,5.72,5.72-6.21,6.21L105.67,171Zm5.66-5.66,7.22-7.22,5.72,5.72-7.22,7.22Zm12.87-12.87,4.83-4.83,5.72,5.72L136.13,152Zm10.48-10.48,6.53-6.53,5.72,5.72-6.53,6.53Zm12.18-12.18,6.66-6.66,5.72,5.72-6.66,6.66Zm12.32-12.32,5.52-5.52,5.72,5.72L171.12,117Zm-5.66-5.66-6.51-6.51,5.52-5.52,6.51,6.51ZM164.41,88l6-6L177,88.44l-6,6Zm-5.66-5.66-5.68-5.68,6-6,5.68,5.68ZM147.42,71l-5-5,6-6,5,5Zm-10.7-10.7L130.41,54l6-6,6.31,6.31Zm-12-12-7-7,6-6,7,7ZM112.11,35.66l-6.44-6.44,6-6,6.44,6.44ZM64.63,46.5l6.22,6.22-6.53,6.53L58.11,53Zm-6,18.4-4.83,4.83-6.22-6.22,4.83-4.83Zm-41.45,29,6.22,6.22L17.53,106l-6.22-6.22Zm76.88,88.7L100,176.7l5.72,5.72-5.91,5.91Zm88.2-76.75-5.72-5.72,6-6,5.72,5.72Z" style="fill:#231f20"/></g></g></svg>