<svg xmlns="http://www.w3.org/2000/svg" viewBox="0 0 186.92 192.93"><title>load_grey</title><g id="ee49a9ff-1e68-4275-88bc-cc2ea768e1f4" data-name="Layer 2"><g id="1104979d-0571-4483-8865-4bf9069b4637" data-name="ICONS"><path d="M1,0H.82v7.4c49.57-.77,90.23,31.28,90.56,70.9h9.18C100.23,34.6,55.65-.68,1,0Z" style="fill:#898989"/><path d="M90.29,75.24l-17.42-.07h-.05a12.23,12.23,0,0,0-10,19.31L85.28,126.1a12.26,12.26,0,0,0,9.87,5.15h.1a12.26,12.26,0,0,0,9.85-5l23.12-31.44a12.23,12.23,0,0,0-9.8-19.48l-17.32-.07M119.64,87a1.34,1.34,0,0,1-.12,1.47L96.4,119.86h0a1.36,1.36,0,0,1-1.14.58h0a1.36,1.36,0,0,1-1.14-.6L71.67,88.21A1.41,1.41,0,0,1,72.82,86h0l45.56.2A1.34,1.34,0,0,1,119.64,87Z" style="fill:#898989"/><path d="M0,181.2V134c0-10.37,11.37-15.63,18.13-8.39l25.93,27.79a10.2,10.2,0,0,0,7.46,3.33H137a10.2,10.2,0,0,0,7.46-3.33l24.37-26.12c6.76-7.25,18.13-2,18.13,8.39V181.2c0,6.47-4.78,11.72-10.68,11.72H10.68C4.78,192.93,0,187.68,0,181.2Z" style="fill:#898989"/></g></g></svg>