<svg xmlns="http://www.w3.org/2000/svg" viewBox="0 0 185.92 65.91"><title>lock</title><g id="f415d895-63c9-4707-922d-6f11115a1e27" data-name="Layer 2"><g id="594783f0-5eca-4067-8419-0b459854faa9" data-name="ICONS"><path d="M76,45H64.47a.21.21,0,0,0-.21.21,8.74,8.74,0,0,1-8.74,8.74H20.74A8.74,8.74,0,0,1,12,45.16V20.74A8.74,8.74,0,0,1,20.74,12h35a8.54,8.54,0,0,1,8.53,8.53h12A20.59,20.59,0,0,0,55.73,0h-35A20.81,20.81,0,0,0,0,20.74V45.16A20.81,20.81,0,0,0,20.74,65.91H55.52A20.81,20.81,0,0,0,76.26,45.16.21.21,0,0,0,76,45Z"/><path d="M165.17,0h-38A20.59,20.59,0,0,0,106.6,20.53h12A8.54,8.54,0,0,1,127.14,12h38a8.74,8.74,0,0,1,8.74,8.74V45.16a8.74,8.74,0,0,1-8.74,8.74H127.34a8.74,8.74,0,0,1-8.74-8.74.21.21,0,0,0-.21-.21H106.81a.21.21,0,0,0-.21.21,20.81,20.81,0,0,0,20.74,20.74h37.83a20.81,20.81,0,0,0,20.74-20.74V20.74A20.81,20.81,0,0,0,165.17,0Z"/><path d="M106.81,40.58h11.58a.21.21,0,0,1,.42,0h34.1A7.61,7.61,0,0,0,160.5,33v-.07a7.61,7.61,0,0,0-7.59-7.59h-34.1a.21.21,0,0,1-.42,0H106.81a.21.21,0,0,1-.42,0H76.47a.21.21,0,0,1-.42,0H64.47a.21.21,0,0,1-.42,0H33a7.61,7.61,0,0,0-7.59,7.59V33A7.61,7.61,0,0,0,33,40.58H64a.21.21,0,0,1,.42,0H76a.21.21,0,0,1,.42,0h29.92a.21.21,0,0,1,.42,0Z"/></g></g></svg>