<svg xmlns="http://www.w3.org/2000/svg" viewBox="0 0 186.02 147.9"><title>login</title><g id="4b72d9dd-0d69-42c7-b1e0-cae3c0dd8c75" data-name="Layer 2"><g id="29a661e2-b5c1-4a2f-81ae-1144dbf9e981" data-name="ICONS"><path d="M76.43,78.91l-.07,16.26v.05a11.42,11.42,0,0,0,18,9.31l29.54-21a11.45,11.45,0,0,0,4.81-9.22s0-.06,0-.1a11.45,11.45,0,0,0-4.65-9.2L94.73,43.48a11.42,11.42,0,0,0-18.19,9.15l-.07,16.18M87.37,51.5a1.25,1.25,0,0,1,1.37.12L118.1,73.2h0a1.27,1.27,0,0,1,.54,1.06h0a1.27,1.27,0,0,1-.56,1.06l-29.54,21a1.32,1.32,0,0,1-2.08-1.08h0l.18-42.54A1.25,1.25,0,0,1,87.37,51.5Z"/><rect y="69.1" width="80.83" height="10.1" rx="4.27" ry="4.27"/><path d="M174,0H50.12a12,12,0,0,0-12,12V46.23h9V12a3,3,0,0,1,3-3H174a3,3,0,0,1,3,3V135.9a3,3,0,0,1-3,3H50.12a3,3,0,0,1-3-3V102.23h-9V135.9a12,12,0,0,0,12,12H174a12,12,0,0,0,12-12V12A12,12,0,0,0,174,0Z"/></g></g></svg>