<svg xmlns="http://www.w3.org/2000/svg" viewBox="0 0 186.02 147.9"><title>logout_grey</title><g id="7d204e45-4b03-4f4f-a95a-6de0ae9d47bb" data-name="Layer 2"><g id="604b7b34-41d2-405f-82e6-462635adf9db" data-name="ICONS"><path d="M133.76,79.09l.07,16.18A11.42,11.42,0,0,0,152,104.42l29.35-21.59a11.45,11.45,0,0,0,4.65-9.2s0-.06,0-.1a11.45,11.45,0,0,0-4.81-9.22l-29.54-21a11.42,11.42,0,0,0-18,9.31v.05L133.71,69m10.21,26.23-.18-42.54h0a1.32,1.32,0,0,1,2.08-1.08l29.54,21a1.27,1.27,0,0,1,.56,1.06h0a1.27,1.27,0,0,1-.54,1.06h0L146,96.28a1.32,1.32,0,0,1-2.1-1.06Z" style="fill:#898989"/><rect x="57.28" y="68.69" width="80.83" height="10.1" rx="4.27" ry="4.27" style="fill:#898989"/><path d="M112.65,45.67V12a12,12,0,0,0-12-12H12A12,12,0,0,0,0,12V135.9a12,12,0,0,0,12,12h88.65a12,12,0,0,0,12-12V101.67h-9V135.9a3,3,0,0,1-3,3H12a3,3,0,0,1-3-3V12a3,3,0,0,1,3-3h88.65a3,3,0,0,1,3,3V45.67Z" style="fill:#898989"/></g></g></svg>