<svg xmlns="http://www.w3.org/2000/svg" viewBox="0 0 189.68 190.92"><title>maintenance_grey</title><g id="3595fd05-2a93-490f-bf6a-c5f4ccfac4c1" data-name="Layer 2"><g id="10c7d21e-2371-45cd-80ef-faac02aef828" data-name="ICONS"><path d="M189.57,51c-.19-2.94-1.77-8.82-6.43-10.09-3.8-1-8.36.86-10.91,3.27-3.59,3.39-7.09,6.9-10.48,10.29-3,3-6.13,6.13-9.26,9.13l-.11,0c-6.37-1.78-12.94-3.88-19.52-6.23a2.28,2.28,0,0,1-.35-.38c-1.23-3.48-2.4-7.2-3.43-10.49l-.05-.17c-.92-2.93-1.87-5.95-2.89-8.93,5.62-5.46,11.2-11.08,16.6-16.51l3.07-3.09c1.95-2,4.17-4.66,4.08-8.27s-2.35-6.13-4.56-8.13L143.76,0H130l-1.15.56-.51.27A53.91,53.91,0,0,0,91.52,25a53,53,0,0,0-5.9,43.57l0,.11-.06.06C73,80.57,60.15,92.67,47.76,104.38l-.71.67c-12.22,11.54-24.85,23.47-37.3,35.17C2.41,147.11-.81,155.76.17,165.93a27.55,27.55,0,0,0,11,18.94,28.67,28.67,0,0,0,17.21,6,24.52,24.52,0,0,0,4.17-.35c9.34-1.61,15.42-7,20.59-12.65,12.5-13.57,25.1-27.15,37.28-40.28,10.12-10.9,20.57-22.17,30.83-33.29l.08-.08a50.85,50.85,0,0,0,25.51,1.33A52.41,52.41,0,0,0,189.57,51ZM96.17,65.39a41.49,41.49,0,0,1,4.64-34.54A42.91,42.91,0,0,1,130.7,11.58a7.09,7.09,0,0,0,1.93-.59h4.47l-2.18,2.19c-5.43,5.47-11,11.12-16.65,16.56a9.67,9.67,0,0,0-2.65,10.92c1,3,2,6.15,3,9.18,1.12,3.58,2.29,7.28,3.58,10.92A11.93,11.93,0,0,0,129,67.7c7,2.51,14,4.75,20.84,6.64a11.29,11.29,0,0,0,10-2.58c3.29-3.14,6.53-6.38,9.67-9.52,3-3,6-6.05,9.13-9a41.43,41.43,0,0,1-33.84,41.55,39.43,39.43,0,0,1-20.1-1c-4.47-1.47-8.24-.46-11.52,3.09C103,108,92.51,119.26,82.4,130.16l-.07.07C70.11,143.4,57.47,157,45.09,170.46c-4.46,4.84-8.61,8.27-14.37,9.26a16.78,16.78,0,0,1-12.84-3.6,16.56,16.56,0,0,1-6.77-11.25c-.66-6.79,1.3-12.08,6.15-16.64,12.9-12.12,26.11-24.59,37.75-35.6l.29-.27c12.38-11.7,25.19-23.8,37.81-35.65C96.59,73.46,97.53,70,96.17,65.39Z" style="fill:#898989"/></g></g></svg>