<svg xmlns="http://www.w3.org/2000/svg" viewBox="0 0 199.64 199.64"><title>meddens</title><g id="e59f7bb4-d0fc-4bb5-9147-3df3cf6481bd" data-name="Layer 2"><g id="39789d54-5f59-46f5-8ccd-146d19959460" data-name="ICONS"><path d="M37.64,62.18l0,0L32,67.81l0,0-32,32,99.82,99.82,99.82-99.82L99.82,0Zm87.42-25.62L98.7,62.93,73.45,37.68,99.82,11.31ZM98.7,123.23,74.2,98.74,98.7,74.24l24.49,24.49Zm30.15-18.84,27.46,27.46-24.49,24.49-27.46-27.46ZM93,128.88,66.71,155.22,42.22,130.72l26.33-26.33Zm11.31-60.3,26.37-26.37,24.49,24.49L128.85,93.08ZM67.8,43.34,93,68.59,68.55,93.08,43.3,67.83ZM37.65,73.49,62.89,98.74,36.56,125.07,11.31,99.82Zm34.72,87.38L98.7,134.54,126.15,162,99.82,188.33ZM162,126.19,134.5,98.74l26.37-26.37,27.46,27.46Z" style="fill:#231f20"/></g></g></svg>