<svg xmlns="http://www.w3.org/2000/svg" viewBox="0 0 184.61 188.99"><title>move_white</title><g id="deaddc64-0a1d-4a3a-b4fd-ef3bcbf5f9f3" data-name="Layer 2"><g id="d73e192c-4dc8-4b4d-9454-b8bd89d0a19a" data-name="ICONS"><path d="M180,85.3,150.94,63.93a11.31,11.31,0,0,0-18,9.06l-.07,16H99.69V51.78l16.1.07h0A11.31,11.31,0,0,0,125.06,34L104.31,4.76A11.33,11.33,0,0,0,95.19,0h-.09A11.34,11.34,0,0,0,86,4.61L64.62,33.67a11.31,11.31,0,0,0,9.06,18l16,.07V89H51.74l-.07-16a11.31,11.31,0,0,0-18-9.06L4.61,85.3h0a11.31,11.31,0,0,0,.16,18.33L34,124.37a11.31,11.31,0,0,0,17.85-9.27L51.78,99H89.69v38.25l-16,.07a11.31,11.31,0,0,0-9.06,18L86,184.38A11.33,11.33,0,0,0,95.09,189h.09a11.34,11.34,0,0,0,9.13-4.76L125.06,155a11.31,11.31,0,0,0-9.27-17.85l-16.1.07V99h33.14l-.07,16.1a11.3,11.3,0,0,0,17.85,9.27l29.24-20.74A11.31,11.31,0,0,0,180,85.3ZM72.56,41a1.24,1.24,0,0,1,.12-1.36L94,10.53h0a1.26,1.26,0,0,1,1-.53h0a1.26,1.26,0,0,1,1.05.55L116.9,39.79a1.31,1.31,0,0,1-1.06,2.06h0l-42.11-.18A1.24,1.24,0,0,1,72.56,41ZM41.15,116.31a1.24,1.24,0,0,1-1.36-.09L10.55,95.47a1.31,1.31,0,0,1,0-2.12L39.59,72a1.31,1.31,0,0,1,2.08,1l.18,42.11A1.24,1.24,0,0,1,41.15,116.31Zm74.68,30.83h0a1.31,1.31,0,0,1,1.06,2.06L96.16,178.44a1.26,1.26,0,0,1-1.05.55h0a1.26,1.26,0,0,1-1-.53L72.67,149.4a1.31,1.31,0,0,1,1-2.08Zm58.22-51.67-29.24,20.74a1.31,1.31,0,0,1-2.06-1.07L142.93,73a1.24,1.24,0,0,1,.72-1.16,1.35,1.35,0,0,1,.6-.15A1.26,1.26,0,0,1,145,72l29.06,21.37a1.31,1.31,0,0,1,0,2.12Z" style="fill:#fff"/></g></g></svg>