<svg xmlns="http://www.w3.org/2000/svg" viewBox="0 0 186.92 192.92"><title>nozzle_white</title><g id="0df9eb85-0e2c-41e8-8aae-aa68ea11baaf" data-name="Layer 2"><g id="c83f6986-bf3d-4cd1-a518-501c72fe3627" data-name="ICONS"><path d="M0,.37l78.9,78.9a20.33,20.33,0,0,0,28.75,0L186.92,0ZM93.25,81.61c-6.26,0-11.33-2.55-11.33-5.69S87,70.23,93.25,70.23s11.33,2.55,11.33,5.69S99.5,81.61,93.25,81.61Z" style="fill:#fff"/><path d="M167.48,192.92h-.23a3.11,3.11,0,0,1-3-3.23c0-.07.07-3-3.11-6-3.43-3.27-11.16-7.17-28.56-7.17-21.53,0-32.13-10.43-37.23-19.17a38.47,38.47,0,0,1-5.16-19.38V97.67a3.29,3.29,0,0,1,6.55,0v40.28a32.77,32.77,0,0,0,4.37,16.52c6.19,10.61,16.78,16,31.47,16,16,0,27.32,3.12,33.53,9.26,4.94,4.89,4.72,9.84,4.68,10.39A3.18,3.18,0,0,1,167.48,192.92Z" style="fill:#fff"/></g></g></svg>