<svg xmlns="http://www.w3.org/2000/svg" viewBox="0 0 186.83 192.41"><title>place_white</title><g id="eb2d2a26-a1a0-47e8-80c0-d1dc63d29718" data-name="Layer 2"><g id="fad4e54d-72e1-4873-8153-9f2b02d15be8" data-name="ICONS"><rect y="182.57" width="186.83" height="9.83" rx="4.92" ry="4.92" style="fill:#fff"/><rect y="160.66" width="186.83" height="9.83" rx="4.92" ry="4.92" style="fill:#fff"/><path d="M88.53,90.16l-16-.07h0a11.27,11.27,0,0,0-9.19,17.78L83.92,137A11.29,11.29,0,0,0,93,141.76h.09a11.3,11.3,0,0,0,9.08-4.59l21.29-29a11.27,11.27,0,0,0-9-17.94l-16-.07M115.56,101a1.23,1.23,0,0,1-.11,1.36l-21.29,29h0a1.25,1.25,0,0,1-1,.53h0a1.26,1.26,0,0,1-1-.55L71.37,102.11a1.3,1.3,0,0,1,1.06-2.05h0l42,.18A1.24,1.24,0,0,1,115.56,101Z" style="fill:#fff"/><rect x="45.62" y="42.61" width="95.19" height="9.96" rx="4.27" ry="4.27" transform="translate(140.81 -45.62) rotate(90)" style="fill:#fff"/></g></g></svg>