<svg xmlns="http://www.w3.org/2000/svg" viewBox="0 0 186.92 194"><title>print_white</title><g id="51e32e92-1b44-4277-a2b7-b683c2ee6a19" data-name="Layer 2"><g id="0dd74f2e-36cd-4b48-b006-13d205fa9048" data-name="ICONS"><path d="M184.25,188.67H2.67a2.67,2.67,0,0,0,0,5.33H184.25a2.67,2.67,0,0,0,0-5.33Z" style="fill:#fff"/><path d="M184.25,174.58H2.67a2.67,2.67,0,0,0,0,5.33H184.25a2.67,2.67,0,1,0,0-5.33Z" style="fill:#fff"/><path d="M184.25,160.5H2.67a2.67,2.67,0,0,0,0,5.33H184.25a2.67,2.67,0,1,0,0-5.33Z" style="fill:#fff"/><path d="M2.67,151.75H184.25a2.67,2.67,0,0,0,0-5.33H2.67a2.67,2.67,0,0,0,0,5.33Z" style="fill:#fff"/><path d="M2.67,137.67H94.5a2.62,2.62,0,0,0,.67-.1c19.62-.3,34.13-5.79,43.13-16.36,12.44-14.61,9.58-33.33,9.45-34.12a2.6,2.6,0,0,0-5.13.83c0,.17,2.62,17.12-8.27,29.92-8,9.41-21.27,14.29-39.42,14.54a2.63,2.63,0,0,0-.42,0H2.67a2.67,2.67,0,0,0,0,5.33Z" style="fill:#fff"/><polygon points="158.5 66.6 131.22 66.54 144.89 81.33 158.5 66.6" style="fill:#fff"/><rect x="104.45" width="80.82" height="60.36" rx="9.54" ry="9.54" style="fill:#fff"/></g></g></svg>