<svg xmlns="http://www.w3.org/2000/svg" viewBox="0 0 172.08 192.67"><title>profile_white</title><g id="9139fa8d-8ad2-4a70-ac76-cb7ac6a36c24" data-name="Layer 2"><g id="abb317db-1541-4e60-a39c-61687b59845b" data-name="ICONS"><g id="d4a33283-1315-4c91-8dbd-37799ef1a362" data-name="dEQq3h.tif"><path d="M86.23,9a38.3,38.3,0,0,1,26.68,10.59c8.66,8.3,12.58,17.89,11.66,28.49-1,11.28-7.49,23.93-18.81,36.58L97.13,94.3l12,4.74c11.34,4.47,20.19,10.06,30.54,19.29,15.69,14,23.56,32.22,23.37,54.17-.07,8.3-2.67,11-10.7,11-22,.1-44.27.15-66.24.15s-44.3-.05-66.3-.15c-4,0-6.73-.81-8.25-2.36-2-2-2.47-5.88-2.56-8.78-.4-13.5,3.85-27.88,12-40.51s19.58-22.69,32.26-28.23c2.18-1,4.43-1.85,7-2.89L64.5,99l11.8-4.79-8.46-9.52C55.66,71,48.9,58.4,47.75,47.2,46.69,36.94,50.41,28,59.12,19.73A39.32,39.32,0,0,1,86.23,9h0m0-9A48.42,48.42,0,0,0,52.94,13.18C31.43,33.5,34,60.21,61.11,90.71c-4.45,1.81-8,3.16-11.48,4.68C20.09,108.31-.9,141,0,172.64c.38,13,6.67,19.82,19.76,19.88q33.17.15,66.34.15t66.28-.15c13.1-.06,19.55-6.81,19.66-19.94.2-24.16-8.51-45-26.38-61-9.92-8.85-19.53-15.55-33.23-20.95,25.72-28.74,28.25-56.89,6.68-77.57A47.37,47.37,0,0,0,86.23,0Z" style="fill:#fff"/></g></g></g></svg>