<svg xmlns="http://www.w3.org/2000/svg" viewBox="0 0 186.92 192.98"><title>raft</title><g id="1980eb4a-46c4-44ec-aadb-a5dd37435d44" data-name="Layer 2"><g id="25644254-00a0-431e-9a59-9e244aaf9fd9" data-name="ICONS"><rect x="73.23" y="173.56" width="113.69" height="19.42"/><path d="M40.35,154.64,33,161.95l0,0a7.29,7.29,0,0,0,3.93,12.34l22.78,3.87a7.31,7.31,0,0,0,6.33-2l0,0a7.31,7.31,0,0,0,2.05-6.25l-3.51-23a7.29,7.29,0,0,0-12.34-4.08l-7.33,7.27m12.73-2.89a.8.8,0,0,1,.57.67l3.5,23h0a.81.81,0,0,1-.24.72h0a.81.81,0,0,1-.73.23L38,168a.84.84,0,0,1-.45-1.43h0L56.8,147.41A.8.8,0,0,1,57.65,147.21Z"/><rect x="-7.77" y="129.8" width="61.58" height="6.45" rx="2.48" ry="2.48" transform="translate(100.8 22.68) rotate(45)"/><path d="M180.92,19.17V157.81H84.69L180.92,19.17m6-19.17L73.23,163.81H186.92V0Z"/></g></g></svg>