<svg xmlns="http://www.w3.org/2000/svg" viewBox="0 0 186.51 179.92"><title>refresh_grey</title><g id="5d999ad9-0ab2-402d-b58f-1295c44c87ba" data-name="Layer 2"><g id="f061c399-081b-40d3-90bc-eb29842d2014" data-name="ICONS"><path d="M175.37,85.4c-6-.38-4.68,5.39-5.55,9.1-2.23,9.48-3.1,19.57-7,28.33-14.71,33.32-48.28,51.72-84.66,46.64a75.56,75.56,0,0,1-40.81-18.94l0,0,9.9-9.82,0,0A9.79,9.79,0,0,0,42,124.08l-30.61-5.2a9.82,9.82,0,0,0-8.51,2.67l-.06.06A9.82,9.82,0,0,0,.11,130l4.71,30.88a9.79,9.79,0,0,0,16.57,5.48l9-8.88c21.06,18.5,46.16,25.45,75.47,21.25,39.22-5.63,73-43.61,73.82-83.65C179.71,91.24,181.35,85.78,175.37,85.4ZM15.3,160.22a1.13,1.13,0,0,1-1.91-.63L8.67,128.7h0a1.09,1.09,0,0,1,.32-1H9a1.09,1.09,0,0,1,1-.31l30.61,5.2a1.13,1.13,0,0,1,.61,1.91h0Z" style="fill:#898989"/><path d="M186.4,55.21l-4.71-30.88a9.79,9.79,0,0,0-16.57-5.48l-9.56,9.48C116.85-11.48,53.83-9,19.55,33.84A86.45,86.45,0,0,0,0,88.17c0,3.32.58,6.29,4.22,6.66s5.08-2.27,5.31-5.68a113.34,113.34,0,0,1,1.07-11.63c9-51.79,61.26-81.06,110-61.54a74.26,74.26,0,0,1,27.83,19.43l-9.2,9.12,0,0a9.79,9.79,0,0,0,5.28,16.58l30.61,5.2a9.82,9.82,0,0,0,8.51-2.67l.06-.06A9.82,9.82,0,0,0,186.4,55.21Zm-8.88,2.27h0a1.09,1.09,0,0,1-1,.31l-30.61-5.2a1.13,1.13,0,0,1-.61-1.91h0L171.22,25a1.13,1.13,0,0,1,1.91.63l4.71,30.88h0A1.09,1.09,0,0,1,177.52,57.48Z" style="fill:#898989"/></g></g></svg>