<svg xmlns="http://www.w3.org/2000/svg" viewBox="0 0 167.3 173.5"><title>revert</title><g id="51f3b975-84b2-4d85-9207-1fb159adf5a2" data-name="Layer 2"><g id="c3bfb124-c7b5-4a25-869b-b443a7878e31" data-name="ICONS"><path d="M139.29,139.13A78.62,78.62,0,0,0,25.44,30.78L19.69,25a86.75,86.75,0,1,1,2.49,125.79,3.3,3.3,0,0,1-.1-4.76l1.37-1.37a2.85,2.85,0,0,1,3.95-.09A78.71,78.71,0,0,0,139.29,139.13Z"/><path d="M24.5,21.72l-7.72-7.66a7.68,7.68,0,0,0-13,4.3L.09,42.58a7.7,7.7,0,0,0,2.16,6.59l0,0A7.7,7.7,0,0,0,9,51.31l24-4.08a7.68,7.68,0,0,0,4.14-13l0,0-7.77-7.7M12,18.89,32.31,39h0a.89.89,0,0,1-.48,1.5l-24,4.08a.86.86,0,0,1-.77-.24h0a.86.86,0,0,1-.25-.76h0L10.5,19.39a.89.89,0,0,1,1.5-.5Z"/><rect x="43.59" y="84.17" width="76.33" height="7.99" rx="4" ry="4" transform="translate(77.23 208.31) rotate(-135)"/><rect x="44.17" y="83.59" width="76.33" height="7.99" rx="4" ry="4" transform="translate(-37.82 83.87) rotate(-45)"/></g></g></svg>