<svg xmlns="http://www.w3.org/2000/svg" viewBox="0 0 186.51 94.86"><title>rotater_white</title><g id="b028acf7-018f-4e23-83bc-2e74584b3129" data-name="Layer 2"><g id="a9c85fa0-41b8-4b20-8396-0300f32fdcc3" data-name="ICONS"><path d="M186.4,55.21l-4.71-30.88a9.79,9.79,0,0,0-16.57-5.48l-9.56,9.48C116.85-11.48,53.83-9,19.55,33.84A86.45,86.45,0,0,0,0,88.17c0,3.32.58,6.29,4.22,6.66s5.08-2.27,5.31-5.68a113.34,113.34,0,0,1,1.07-11.63c9-51.79,61.26-81.06,110-61.54a74.26,74.26,0,0,1,27.83,19.43l-9.2,9.12,0,0a9.79,9.79,0,0,0,5.28,16.58l30.61,5.2a9.82,9.82,0,0,0,8.51-2.67l.06-.06A9.82,9.82,0,0,0,186.4,55.21Zm-8.88,2.27h0a1.09,1.09,0,0,1-1,.31l-30.61-5.2a1.13,1.13,0,0,1-.61-1.91h0L171.22,25a1.13,1.13,0,0,1,1.91.63l4.71,30.88h0A1.09,1.09,0,0,1,177.52,57.48Z" style="fill:#fff"/></g></g></svg>