<svg xmlns="http://www.w3.org/2000/svg" viewBox="0 0 201.38 173.41"><title>rotatef</title><g id="ca6e6a6b-ddca-4536-9cb3-e8f36755e152" data-name="Layer 2"><g id="7ac7afcd-96ea-4acd-8d09-8bd7da2c58dd" data-name="ICONS"><path d="M8.25,82.33a78.62,78.62,0,0,1,157.12,3.89h8.13a86.75,86.75,0,1,0-90.71,87.18,3.3,3.3,0,0,0,3.44-3.3v-1.94a2.85,2.85,0,0,0-2.73-2.86A78.71,78.71,0,0,1,8.25,82.33Z"/><path d="M164.1,82.82,148,82.75h0a11.31,11.31,0,0,0-9.22,17.85l20.74,29.24a11.33,11.33,0,0,0,9.13,4.76h.09A11.34,11.34,0,0,0,177.8,130l21.37-29.06a11.31,11.31,0,0,0-9.06-18l-16-.07m17.13,10.79a1.24,1.24,0,0,1-.12,1.36l-21.37,29.06h0a1.26,1.26,0,0,1-1,.53h0a1.26,1.26,0,0,1-1.05-.55L146.88,94.81a1.31,1.31,0,0,1,1.06-2.06h0l42.11.18A1.24,1.24,0,0,1,191.23,93.65Z"/></g></g></svg>