<svg xmlns="http://www.w3.org/2000/svg" viewBox="0 0 186.51 94.86"><title>rotatel</title><g id="f1a9bb6a-b0de-4e62-99bb-a1728764b945" data-name="Layer 2"><g id="3055b814-8298-407a-a99f-8fb0d0de3b59" data-name="ICONS"><path d="M2.87,63.61l.06.06a9.82,9.82,0,0,0,8.51,2.67L42,61.13a9.79,9.79,0,0,0,5.28-16.58l0,0-9.2-9.12A74.26,74.26,0,0,1,65.93,16c48.72-19.52,101,9.75,110,61.54A113.34,113.34,0,0,1,177,89.14c.23,3.42,1.65,6.06,5.31,5.68s4.26-3.34,4.22-6.66A86.45,86.45,0,0,0,167,33.84C132.68-9,69.66-11.48,31,28.33l-9.56-9.48A9.79,9.79,0,0,0,4.82,24.32L.11,55.21A9.82,9.82,0,0,0,2.87,63.61Zm5.81-7.09h0l4.71-30.88A1.13,1.13,0,0,1,15.3,25L41.2,50.68h0a1.13,1.13,0,0,1-.61,1.91L10,57.8a1.09,1.09,0,0,1-1-.31H9A1.09,1.09,0,0,1,8.67,56.51Z"/></g></g></svg>