<svg xmlns="http://www.w3.org/2000/svg" viewBox="0 0 184.77 191.15"><title>scale_grey</title><g id="e9711976-3df3-4e50-9008-c7b65d0c9ca8" data-name="Layer 2"><g id="a2c7e0ee-7fe6-4021-8654-2e550306cb55" data-name="ICONS"><path d="M80.79,107.36a3,3,0,0,1,3,3v68.79a3,3,0,0,1-3,3H12a3,3,0,0,1-3-3V110.36a3,3,0,0,1,3-3H80.79m0-9H12a12,12,0,0,0-12,12v68.79a12,12,0,0,0,12,12H80.79a12,12,0,0,0,12-12V110.36a12,12,0,0,0-12-12Z" style="fill:#898989"/><path d="M172.77,9a3,3,0,0,1,3,3V133.9a3,3,0,0,1-3,3H50.87a3,3,0,0,1-3-3V12a3,3,0,0,1,3-3h121.9m0-9H50.87a12,12,0,0,0-12,12V133.9a12,12,0,0,0,12,12h121.9a12,12,0,0,0,12-12V12a12,12,0,0,0-12-12Z" style="fill:#898989"/><path d="M114,81.59,125.28,93l0,0a11.27,11.27,0,0,0,19.07-6.08l6-35.22a11.29,11.29,0,0,0-3.07-9.79l-.07-.07a11.3,11.3,0,0,0-9.66-3.17L102,44.11a11.27,11.27,0,0,0-6.3,19.07L107,74.51M102.5,54.84a1.23,1.23,0,0,1,1-.88l35.53-5.42h0a1.25,1.25,0,0,1,1.11.37h0a1.26,1.26,0,0,1,.35,1.13l-6,35.22a1.3,1.3,0,0,1-2.2.7h0l-29.55-29.8A1.24,1.24,0,0,1,102.5,54.84Z" style="fill:#898989"/><rect x="76.74" y="86.78" width="40.88" height="9.96" transform="translate(-36.42 95.59) rotate(-45)" style="fill:#898989"/></g></g></svg>