<svg xmlns="http://www.w3.org/2000/svg" viewBox="0 0 192.18 192.18"><title>scalemax_grey</title><g id="3e871b40-61b4-41da-a25e-0da9579a0f83" data-name="Layer 2"><g id="0ee6dd3d-4c8f-43ab-b5bd-bf667a5947b3" data-name="ICONS"><path d="M52.33,79.76h9.26l5.3,14,1.87,5.51H69l1.87-5.51,5.1-14h9.26v33.8H76.87v-10A116.9,116.9,0,0,1,78,91.51h-.21L75,99.41,70.32,110.8H67L62.31,99.41l-2.7-7.9H59.4a116.9,116.9,0,0,1,1.14,12.06v10H52.33Z" style="fill:#898989"/><path d="M108.7,106.38H99.23l-1.66,7.18H88.42l10.3-33.8h10.82l10.3,33.8h-9.46Zm-1.61-6.92-.57-2.34c-.83-3.22-1.66-7.33-2.5-10.71h-.21c-.73,3.43-1.56,7.49-2.39,10.71l-.57,2.34Z" style="fill:#898989"/><path d="M128.46,96.19l-8.63-16.43h10l2.29,5.51c.73,1.56,1.46,3.43,2.39,5.62h.21c.73-2.18,1.46-4.06,2.08-5.62l2-5.51h9.57L139.69,96.6l9.15,17h-10l-2.7-6c-.83-1.77-1.56-3.54-2.39-5.62h-.21c-.73,2.08-1.46,3.85-2.18,5.62l-2.5,6H119.3Z" style="fill:#898989"/><path d="M180.18,9a3,3,0,0,1,3,3V180.18a3,3,0,0,1-3,3H12a3,3,0,0,1-3-3V12a3,3,0,0,1,3-3H180.18m0-9H12A12,12,0,0,0,0,12V180.18a12,12,0,0,0,12,12H180.18a12,12,0,0,0,12-12V12a12,12,0,0,0-12-12Z" style="fill:#898989"/><path d="M141.85,55.79,152.4,66.43l0,0a10.52,10.52,0,0,0,17.81-5.68l5.59-32.89A10.55,10.55,0,0,0,173,18.75l-.06-.06a10.55,10.55,0,0,0-9-3l-33.19,5.06a10.52,10.52,0,0,0-5.89,17.81L135.3,49.18M131.12,30.8a1.15,1.15,0,0,1,1-.82l33.19-5.06h0a1.17,1.17,0,0,1,1,.34h0a1.17,1.17,0,0,1,.33,1.06l-5.59,32.89a1.22,1.22,0,0,1-2.06.66h0L131.42,32A1.15,1.15,0,0,1,131.12,30.8Z" style="fill:#898989"/><polygon points="139.16 47.01 118.36 67.81 128.81 67.81 144.38 52.24 139.16 47.01" style="fill:#898989"/><path d="M51.12,135.27,40.57,124.63l0,0a10.52,10.52,0,0,0-17.81,5.68l-5.59,32.89A10.55,10.55,0,0,0,20,172.31l.06.06a10.55,10.55,0,0,0,9,3l33.19-5.06a10.52,10.52,0,0,0,5.89-17.81L57.67,141.88m4.18,18.37a1.15,1.15,0,0,1-1,.82l-33.19,5.06h0a1.17,1.17,0,0,1-1-.34h0a1.17,1.17,0,0,1-.33-1.06l5.59-32.89a1.22,1.22,0,0,1,2.06-.66h0L61.55,159A1.15,1.15,0,0,1,61.85,160.25Z" style="fill:#898989"/><polygon points="53.81 144.05 74.61 123.25 64.16 123.25 48.59 138.82 53.81 144.05" style="fill:#898989"/></g></g></svg>