<svg xmlns="http://www.w3.org/2000/svg" viewBox="0 0 174.42 169.24"><title>settings_2bee_icon_</title><g id="2cf8eb92-ffa6-4098-961f-7724e6e57448" data-name="Layer 2"><g id="26300edc-57a0-4bf5-a786-58790f9a2740" data-name="ICONS"><path d="M87.44,50.81a33.44,33.44,0,1,0,31.8,23.11A33.41,33.41,0,0,0,87.44,50.81Zm20,43.64a22.45,22.45,0,1,1,1.35-17.12A22.29,22.29,0,0,1,107.43,94.44Z" style="fill:#fff"/><path d="M153.15,108a69.84,69.84,0,0,0,3.77-16.3l17.5-10.59-7.31-32.18-19.72-.53a69.39,69.39,0,0,0-10.84-13.82l2.63-20.17L109.47,0,96.82,15a68,68,0,0,0-18.23-.07L64.77.62,35,14.88,38.83,34A70,70,0,0,0,27.48,48.4L7.42,50.29,0,82.45l17.93,9.27v-.05a70.15,70.15,0,0,0,3,14.18c.17.53.36,1.05.55,1.58l-11.13,17,20.5,25.86,17.73-7.92a70.26,70.26,0,0,0,19.27,9l5.95,17.89h33l5-19.52a69.76,69.76,0,0,0,14-7.07l19.07,7,20.59-25.79L153.3,107.78Zm-16.82,1.21c-.26.51-.53,1-.81,1.49l9.15,11.3-7,8.83-13-6.26a54.7,54.7,0,0,1-20.35,11.92,55.44,55.44,0,0,1-8.27,2l-3,13.59-11.26.05-3.09-13.61A54.66,54.66,0,0,1,50.5,124.89l-13.2,6.5-7.07-8.77L39.51,111a55.37,55.37,0,0,1-4.26-9.79A54.58,54.58,0,0,1,32.64,81.5l-12.77-6,2.44-11h14A55,55,0,0,1,55.9,39.34L52.66,25.5l10.13-4.91,8.82,11.13a54.67,54.67,0,0,1,31.86,0l8.79-11.17,10.16,4.85-3.24,14a54.78,54.78,0,0,1,19.46,25.1l13.83-.1,2.55,11-12.76,6.12A54.55,54.55,0,0,1,136.33,109.17Z" style="fill:#fff"/></g></g></svg>