<svg xmlns="http://www.w3.org/2000/svg" viewBox="0 0 173.65 192.16"><title>shutdown_grey</title><g id="06a89ece-a944-47ae-a445-a292eeeb8b46" data-name="Layer 2"><g id="78effe98-766d-412c-a120-b68c84545a84" data-name="ICONS"><path d="M101,24.58v.71a4.37,4.37,0,0,0,3.39,4.26,77.81,77.81,0,1,1-36,.2A4.74,4.74,0,0,0,72,25.14V23.91a3.39,3.39,0,0,0-4.11-3.32A86.85,86.85,0,0,0,0,107C.88,152.28,37,189.66,82.14,192A86.83,86.83,0,0,0,106,20.64,4.05,4.05,0,0,0,101,24.58Z" style="fill:#898989"/><rect x="82.23" width="9.18" height="117.41" rx="4.59" ry="4.59" style="fill:#898989"/></g></g></svg>