<svg xmlns="http://www.w3.org/2000/svg" viewBox="0 0 187.72 191.29"><title>slicepanel</title><g id="0880986c-9d84-48e0-a926-739146c34821" data-name="Layer 2"><g id="5a7b3302-f4ec-442f-b4cd-b20f812044f9" data-name="ICONS"><path d="M55,123.82A28.22,28.22,0,0,0,82.74,100.6H186.92v-10H82.74a28.22,28.22,0,0,0-55.54,0H0v10H27.2A28.22,28.22,0,0,0,55,123.82Zm0-46.44A18.28,18.28,0,1,1,37.46,90.6,18.24,18.24,0,0,1,55,77.37Z"/><path d="M123.82,56.44a28.22,28.22,0,0,0,27.77-23.22h35.32v-10H151.59a28.22,28.22,0,0,0-55.54,0H0v10H96.05A28.22,28.22,0,0,0,123.82,56.44Zm0-46.44a18.28,18.28,0,1,1-17.51,13.22A18.24,18.24,0,0,1,123.82,10Z"/><path d="M159.5,134.84A28.22,28.22,0,0,0,131.75,158H0v10H131.71a28.22,28.22,0,1,0,27.79-33.13Zm0,46.44A18.29,18.29,0,1,1,177,168,18.24,18.24,0,0,1,159.5,181.29Z"/></g></g></svg>