<svg xmlns="http://www.w3.org/2000/svg" viewBox="0 0 186.23 183.2"><title>Slice</title><g id="c10b2898-82a1-4648-b230-431b6611c859" data-name="Layer 2"><g id="c848d337-addc-4236-8a75-f751a7f3ce79" data-name="ICONS"><path d="M182.28,14.53,169.56,3.07A12,12,0,0,0,152.62,4L99.94,62.4a12,12,0,0,0-2.91,10l-1.41,4.71L0,183.2l94-26.85,23.6-63.13a12,12,0,0,0,12.84-3.29l52.68-58.45A12,12,0,0,0,182.28,14.53ZM87.21,148.95l-59.54,17L101,84.59l7.35,7.85Zm36.59-65a3,3,0,0,1-2.24,1,3,3,0,0,1-2-.76L106.85,72.67a3,3,0,0,1-.22-4.24L112.44,62l17.26,15.39Zm11.92-13.23L118.46,55.29,129.9,42.6,147.16,58ZM153.18,51.3,135.93,35.91l12.34-13.7,17.26,15.39Zm23.29-25.85-4.93,5.47L154.3,15.53l5-5.56a3,3,0,0,1,2.24-1,2.94,2.94,0,0,1,2,.76l12.72,11.46a3,3,0,0,1,.22,4.24Z"/></g></g></svg>