<svg xmlns="http://www.w3.org/2000/svg" viewBox="0 0 159.66 176.02"><title>support_1</title><g id="5e06523f-7f02-4cd4-938a-c44941c8afe5" data-name="Layer 2"><g id="e659b371-eaef-434b-a344-652f5209984c" data-name="ICONS"><rect x="4.09" y="170.89" width="153.01" height="2.63" style="fill:#231f20"/><polygon points="159.6 168.39 1.59 168.39 1.59 176.02 159.6 176.02 159.6 168.39 159.6 168.39" style="fill:#231f20"/><rect x="6.52" y="97.2" width="3.82" height="73.16" style="fill:#231f20"/><polygon points="10.33 97.2 6.52 97.2 6.52 170.37 10.33 170.37 10.33 97.2 10.33 97.2" style="fill:#231f20"/><rect x="30.32" y="122.2" width="3.82" height="48.16" style="fill:#231f20"/><polygon points="34.13 122.2 30.32 122.2 30.32 170.36 34.13 170.36 34.13 122.2 34.13 122.2" style="fill:#231f20"/><rect x="54.12" y="143.2" width="3.82" height="27.16" style="fill:#231f20"/><polygon points="57.94 143.2 54.12 143.2 54.12 170.36 57.94 170.36 57.94 143.2 57.94 143.2" style="fill:#231f20"/><rect x="77.92" y="163.13" width="3.82" height="7.23" style="fill:#231f20"/><polygon points="81.74 163.13 77.92 163.13 77.92 170.36 81.74 170.36 81.74 163.13 81.74 163.13" style="fill:#231f20"/><rect x="101.72" y="143.2" width="3.82" height="27.16" style="fill:#231f20"/><polygon points="105.54 143.2 101.72 143.2 101.72 170.36 105.54 170.36 105.54 143.2 105.54 143.2" style="fill:#231f20"/><rect x="125.52" y="122.2" width="3.82" height="48.16" style="fill:#231f20"/><polygon points="129.34 122.2 125.52 122.2 125.52 170.36 129.34 170.36 129.34 122.2 129.34 122.2" style="fill:#231f20"/><rect x="149.32" y="97.2" width="3.82" height="73.16" style="fill:#231f20"/><polygon points="153.14 97.2 149.32 97.2 149.32 170.37 153.14 170.37 153.14 97.2 153.14 97.2" style="fill:#231f20"/><path d="M79.83,12.73l67.1,67.1-67.1,67.1-67.1-67.1,67.1-67.1M79.83,0,0,79.83l79.83,79.83,79.83-79.83L79.83,0Z" style="fill:#231f20"/></g></g></svg>