<svg xmlns="http://www.w3.org/2000/svg" viewBox="0 0 186.92 192.73"><title>support_grey</title><g id="1eadfd0a-4bbd-40c4-8b33-34e09007cfa2" data-name="Layer 2"><g id="f4333d1c-5e19-46d0-9caa-9394828b28f7" data-name="ICONS"><path d="M68.1,59.9l-3.51-23a7.29,7.29,0,0,0-12.34-4.08L44.93,40.1l-.13.13L5.29.73a2.48,2.48,0,0,0-3.51,0l-1,1a2.48,2.48,0,0,0,0,3.51L40.21,44.77,33,51.95l0,0a7.29,7.29,0,0,0,3.93,12.34l22.78,3.87a7.31,7.31,0,0,0,6.33-2l0,0A7.31,7.31,0,0,0,68.1,59.9Zm-6.61,1.69h0a.81.81,0,0,1-.73.23L38,58a.84.84,0,0,1-.45-1.43h0L56.8,37.41a.84.84,0,0,1,1.42.47l3.5,23h0A.81.81,0,0,1,61.49,61.59Z" style="fill:#898989"/><path d="M68.18,0l5.38,11.27V192.73H93V52l22.57,47.29v93.48H135v-52.8l25,52.29h27V0ZM180.92,186.22H163.7L77.69,6H180.92Z" style="fill:#898989"/></g></g></svg>